<?xml version="1.0"?>
<svg width="16" height="16" xmlns="http://www.w3.org/2000/svg" xmlns:svg="http://www.w3.org/2000/svg">
 <g class="layer">
  <title>Layer 1</title>
  <path clip-rule="evenodd" d="m8,1.51a6.5,6.5 0 1 1 0,13a6.5,6.5 0 0 1 0,-13zm4.89,4a5.53,5.53 0 0 0 -3.05,-2.68c0.45,0.84 0.77,1.74 0.95,2.68l2.1,0zm0.59,3a5.11,5.11 0 0 0 0.02,-0.5a5.46,5.46 0 0 0 -0.21,-1.5l-2.34,0c0.03,0.33 0.05,0.66 0.05,1a10.11,10.11 0 0 1 -0.21,2l2.5,0c0.09,-0.33 0.16,-0.66 0.19,-1zm-3.54,0l0.01,-0.06a9.04,9.04 0 0 0 0.05,-0.94a8.99,8.99 0 0 0 -0.08,-1l-3.84,0a8.82,8.82 0 0 0 -0.08,1a8.98,8.98 0 0 0 0.23,2l3.54,0c0.07,-0.33 0.13,-0.67 0.17,-1zm-0.19,-3a8.97,8.97 0 0 0 -1.26,-2.97c-0.16,-0.01 -0.32,-0.03 -0.49,-0.03a3.62,3.62 0 0 0 -0.31,0.02l-0.18,0.01l-0.01,0.01a8.97,8.97 0 0 0 -1.25,2.96l3.5,0zm-4.54,0a9.96,9.96 0 0 1 0.96,-2.68a5.53,5.53 0 0 0 -3.06,2.68l2.1,0zm-2.5,1a5.48,5.48 0 0 0 -0.21,1.5a5.48,5.48 0 0 0 0.21,1.5l2.5,0a10.02,10.02 0 0 1 -0.21,-2c0,-0.34 0.02,-0.67 0.05,-1l-2.34,0zm2.76,4l-2.36,0a5.51,5.51 0 0 0 3.82,2.89a10.02,10.02 0 0 1 -1.46,-2.89zm2.53,2.64a8.94,8.94 0 0 0 1.48,-2.64l-2.96,0a8.94,8.94 0 0 0 1.48,2.64zm2.53,-2.64a10.02,10.02 0 0 1 -1.46,2.89a5.52,5.52 0 0 0 3.82,-2.89l-2.36,0z" fill="#3f3f3f" fill-rule="evenodd" id="svg_1"/>
 </g>
</svg>