<?xml version="1.0"?>
<svg width="16" height="16" xmlns="http://www.w3.org/2000/svg" xmlns:svg="http://www.w3.org/2000/svg">
 <g class="layer">
  <title>Layer 1</title>
  <path clip-rule="evenodd" d="m11.67,8.66a3.66,3.66 0 0 0 -0.78,1.11a3.28,3.28 0 0 0 -0.27,1.33l0,1.6a1.3,1.3 0 0 1 -0.79,1.2a1.28,1.28 0 0 1 -0.51,0.1l-1.61,0a1.29,1.29 0 0 1 -0.92,-0.38a1.3,1.3 0 0 1 -0.38,-0.92l0,-1.6c0,-0.48 -0.09,-0.92 -0.27,-1.33a3.56,3.56 0 0 0 -0.78,-1.11a4.69,4.69 0 0 1 -1.01,-1.44a4.19,4.19 0 0 1 -0.35,-1.72a4.43,4.43 0 0 1 0.62,-2.27c0.19,-0.34 0.43,-0.64 0.7,-0.91a4.6,4.6 0 0 1 0.91,-0.71c0.34,-0.19 0.7,-0.34 1.09,-0.45a4.45,4.45 0 0 1 1.2,-0.16a4.48,4.48 0 0 1 2.27,0.61a4.47,4.47 0 0 1 1.62,1.62a4.44,4.44 0 0 1 0.62,2.27c0,0.62 -0.12,1.19 -0.35,1.72a4.69,4.69 0 0 1 -1.01,1.44zm-2.05,1.84l-2.21,0l0,2.2c0,0.08 0.03,0.15 0.09,0.21a0.29,0.29 0 0 0 0.21,0.09l1.61,0a0.29,0.29 0 0 0 0.21,-0.09a0.29,0.29 0 0 0 0.09,-0.21l0,-2.2z" fill="#3f3f3f" fill-rule="evenodd" id="svg_1"/>
 </g>
</svg>