<?xml version="1.0"?>
<svg width="16" height="16" xmlns="http://www.w3.org/2000/svg" xmlns:svg="http://www.w3.org/2000/svg">
 <g class="layer">
  <title>Layer 1</title>
  <path clip-rule="evenodd" d="m14.5,2l-6.79,0l-0.85,-0.85l-0.35,-0.15l-5,0l-0.5,0.5l0,11l0.5,0.5l5.49,0l0,-1l-5.01,0l0,-6l4.49,0l0.35,-0.15l0.86,-0.86l6.31,0l0,1.5l0,0.51l1.01,0l0,-4.5l-0.51,-0.5zm-0.51,2l-6.5,0l-0.35,0.15l-0.86,0.86l-4.28,0l0,-3l4.29,0l0.85,0.85l0.36,0.15l6.5,0l-0.01,0.99zm-0.99,12l-1,0l0,-3l-3,0l0,-1l3,0l0,-3l1,0l0,3l3,0l0,1l-3,0l0,3z" fill="#3f3f3f" fill-rule="evenodd" id="svg_1"/>
 </g>

</svg>