<?xml version="1.0"?>
<svg width="16" height="16" xmlns="http://www.w3.org/2000/svg" xmlns:svg="http://www.w3.org/2000/svg">
 <g class="layer">
  <title>Layer 1</title>
  <path clip-rule="evenodd" d="m1,6.26l0,-3.76l0.5,-0.5l5,0l0.35,0.15l0.86,0.85l5.79,0l0.5,0.5l0,2.5l1.13,0l0.48,0.63l-2.63,7l-0.48,0.37l-3.76,0a5.48,5.48 0 0 0 0.66,-1l2.73,0l2.37,-6l-5.76,0a5.53,5.53 0 0 0 -0.72,-0.72l0.13,-0.13l0.35,-0.15l4.5,0l0,-2l-5.5,0l-0.35,-0.15l-0.86,-0.85l-4.29,0l0.01,2.59c-0.36,0.19 -0.7,0.41 -1.01,0.67z" fill="#3f3f3f" fill-rule="evenodd" id="svg_1"/>
  <path d="m6,10.5a1.5,1.5 0 1 1 -3,0a1.5,1.5 0 0 1 3,0z" fill="#3f3f3f" id="svg_2"/>
  <path clip-rule="evenodd" d="m8,10.5a3.5,3.5 0 1 1 -7,0a3.5,3.5 0 0 1 7,0zm-3.5,2.5a2.5,2.5 0 1 0 0,-5a2.5,2.5 0 0 0 0,5z" fill="#3f3f3f" fill-rule="evenodd" id="svg_3"/>
 </g>
</svg>