<?xml version="1.0"?>
<svg width="16" height="16" xmlns="http://www.w3.org/2000/svg" xmlns:svg="http://www.w3.org/2000/svg">
 <g class="layer">
  <title>Layer 1</title>
  <path clip-rule="evenodd" d="m7.71,3l6.79,0l0.51,0.5l0,10l-0.5,0.5l-5.77,0a5.48,5.48 0 0 0 0.66,-1l4.59,0l0,-1.51l0.01,-4l0,-1.5l-6.31,0l-0.02,0.02a5.49,5.49 0 0 0 -0.88,-0.51l0.35,-0.35l0.35,-0.15l6.5,0l0.01,-0.99l-6.5,0l-0.36,-0.15l-0.85,-0.85l-4.29,0l0,2.59a5.45,5.45 0 0 0 -0.99,0.65l0,-3.75l0.5,-0.5l5,0l0.35,0.15l0.85,0.85z" fill="#3f3f3f" fill-rule="evenodd" id="svg_1"/>
  <path d="m6,10.5a1.5,1.5 0 1 1 -3,0a1.5,1.5 0 0 1 3,0z" fill="#3f3f3f" id="svg_2"/>
  <path clip-rule="evenodd" d="m8,10.5a3.5,3.5 0 1 1 -7,0a3.5,3.5 0 0 1 7,0zm-3.5,2.5a2.5,2.5 0 1 0 0,-5a2.5,2.5 0 0 0 0,5z" fill="#3f3f3f" fill-rule="evenodd" id="svg_3"/>
 </g>
</svg>